<svg xmlns="http://www.w3.org/2000/svg" xml:space="preserve" width="1500" height="1500" data-id="lg_u4dGi5Mym4atVoRgxb" data-version="1" viewBox="0 0 1500 1500"><path fill="#4c4c4c" stroke="transparent" d="M0 0h1500v1500H0z"/><g data-padding="20"><g transform="translate(-571.429 -581.983)scale(1.72194)"><rect width="69.356" height="109.661" x="-298.75" y="13.411" fill="#e0e0e0" rx="60.39" ry="60.39" transform="rotate(240 393.935 40.427)scale(1.92)"/><rect width="63.742" height="103.854" x="-295.943" y="16.315" fill="none" stroke="#4c4c4c" rx="60.39" ry="60.39" transform="rotate(240 393.174 39.766)scale(1.92)"/><rect width="320.433" height="229.435" x="206.763" y="258.86" fill="none" rx="0" ry="0" transform="translate(280.72 399.96)"/><path fill="#e0e0e0" d="M576.6 711.798q0-8.7 3.27-16.27t9.55-13.16q6.27-5.59 15.42-8.8 9.15-3.22 20.96-3.22 4.28 0 8.57.45 4.3.45 8.49 1.4 4.2.95 8.18 2.4t7.57 3.45l-7.7 12.66q-2.17-1.27-4.91-2.3t-5.88-1.74-6.48-1.08q-3.35-.37-6.73-.37-7.8 0-13.92 1.98t-10.34 5.54q-4.21 3.56-6.43 8.51-2.21 4.96-2.21 10.87 0 6.11 2.32 11.23 2.32 5.11 6.59 8.81 4.27 3.69 10.33 5.77 6.07 2.08 13.56 2.08 5.96 0 10.91-1.34 4.96-1.35 8.65-3.82 3.69-2.48 6.01-5.99t3.06-7.88h-28.79v-13.77h43.82v.06l.05-.06q1.32 6.33.82 12.32-.5 5.98-2.74 11.28t-6.15 9.73q-3.9 4.43-9.33 7.62t-12.34 4.96q-6.91 1.76-15.13 1.76-11.5 0-20.6-3.37-9.09-3.38-15.42-9.23t-9.68-13.71-3.35-16.77m115.17-28.75q-2.32 0-4.19-.66-1.88-.66-3.19-1.79-1.32-1.14-2.03-2.64-.72-1.5-.72-3.19 0-1.74.72-3.24.71-1.51 2.03-2.61 1.31-1.11 3.19-1.77 1.87-.66 4.19-.66 2.37 0 4.24.66 1.88.66 3.19 1.77 1.32 1.1 2.03 2.61.72 1.5.72 3.24 0 1.69-.72 3.19-.71 1.5-2.03 2.64-1.31 1.13-3.19 1.79-1.87.66-4.24.66m-7.81 70.72v-62.23h15.61v62.23Zm37.65.01v-50.52h-10.65v-11.71h10.65q0-6.33 1.79-11.26 1.8-4.93 5.2-8.33t8.28-5.19q4.88-1.8 10.99-1.8 4.27 0 8.39.82 4.11.82 7.27 2.35l-5.53 13.13q-1.27-.74-3.56-1.37-2.3-.64-5.04-.64-5.38 0-8.67 3.04-3.3 3.03-3.51 9.25h19.67v11.71h-19.67v50.52Z"/><path fill="#e0e0e0" d="M773.54 753.768v-50.52h-15.03v-11.71h15.03v-19.35h15.61v19.35h15.03v11.71h-15.03v50.52Zm-277.85 65.68q0-8.81 3.32-16.43t9.62-13.23q6.3-5.62 15.4-8.84 9.1-3.21 20.59-3.21 10.08 0 18.49 2.03t15.63 6.19l-7.7 12.66q-2.16-1.42-4.98-2.53t-6.01-1.87q-3.19-.77-6.59-1.19t-6.73-.42q-8.01 0-14.29 1.98-6.27 1.97-10.57 5.53t-6.54 8.49-2.24 10.84q0 6.12 2.32 11.23 2.32 5.12 6.72 8.83 4.41 3.72 10.76 5.81 6.35 2.08 14.37 2.08 3.64 0 7.22-.53 3.59-.53 6.94-1.45t6.46-2.21q3.11-1.3 5.8-2.83l7.7 12.66q-6.75 4.33-15.61 6.78t-18.83 2.45q-12.71 0-22.3-3.3-9.6-3.29-16.03-9.07-6.44-5.77-9.68-13.6t-3.24-16.85m94.44 22.1q0-4.49 1.95-8.18t5.85-6.35q3.9-2.67 9.73-4.12t13.58-1.45q5.75 0 12.1.85 6.36.84 13.11 2.58-.27-2.95-1.8-5.46-1.52-2.5-4.24-4.32t-6.54-2.82-8.67-1q-2.64 0-5.81.31-3.16.32-6.53.95-3.38.63-6.68 1.58-3.29.95-6.14 2.27l-4.74-12.81q3.53-1.27 7.56-2.32 4.04-1.06 8.26-1.82 4.21-.77 8.43-1.19t8.18-.42q17.45 0 25.94 8.91t8.49 27.32v27.1h-15.61v-5.85q-2.42 1.42-5.3 2.69-2.87 1.26-6.25 2.21-3.37.95-7.25 1.51-3.87.55-8.2.55-7.27 0-12.79-1.58-5.51-1.58-9.2-4.38-3.69-2.79-5.56-6.56-1.87-3.78-1.87-8.2m16.45-.53q0 1.53.79 2.92.79 1.4 2.53 2.48t4.46 1.74q2.71.66 6.56.66 4.12 0 7.97-.74 3.85-.73 7.17-1.95 3.32-1.21 6.01-2.79t4.48-3.27v-2.74q-3.58-1.01-7.09-1.69-3.51-.69-6.7-1.08-3.19-.4-6.01-.56-2.82-.15-4.93-.15-4.38 0-7.28.58t-4.69 1.55q-1.79.98-2.53 2.3-.74 1.31-.74 2.74m71.45 20.14v-62.22h15.61v8.96q5.17-3.85 10.91-6.64 5.75-2.8 11.45-4.28l4.59 14.3q-9.02.89-15.85 4.03t-11.1 8.83v37.02Zm44.61-30.84q0-7.43 2.79-13.42 2.8-5.98 7.73-10.23 4.93-4.24 11.7-6.54 6.78-2.29 14.69-2.29 3.38 0 6.67.42 3.3.42 6.33 1.16t5.7 1.77q2.66 1.03 4.72 2.24v-29.74h15.6v87.48h-15.6v-5.85q-2.06 1.42-4.86 2.69-2.79 1.26-6.01 2.21t-6.67 1.51q-3.45.55-6.83.55-7.91 0-14.53-2.32-6.61-2.32-11.36-6.54t-7.41-10.1-2.66-13m16.4 0q0 3.75 1.5 7.07t4.32 5.83q2.83 2.5 6.81 3.95t8.94 1.45q3.16 0 6.32-.6 3.17-.61 6.09-1.72 2.93-1.11 5.49-2.69t4.46-3.53v-21.57q-2.38-1.9-5.01-3.22-2.64-1.31-5.38-2.16-2.75-.84-5.54-1.24-2.8-.39-5.43-.39-5.38 0-9.57 1.45-4.2 1.45-7.07 3.98t-4.4 5.96q-1.53 3.42-1.53 7.43"/><rect width="109.397" height="55.528" x="23.515" y="490.036" fill="none" rx="0" ry="0" transform="rotate(-35.9 894.069 -651.74)"/><path fill="#4c4c4c" d="m875.165 801.522-.184-3.904q1.233-.14 2.42-.393t2.357-.682q1.158-.43 2.325-1.053 1.174-.628 2.373-1.496 1.45-1.05 2.33-1.983.886-.925 1.285-1.72.394-.803.351-1.476-.034-.68-.427-1.222-.633-.875-1.74-.851-1.098.017-2.62 1.12-.665.48-1.338 1.103-.68.629-1.358 1.28-.69.648-1.355 1.264-.673.623-1.32 1.092-1.078.78-2.274 1.226-1.194.432-2.362.438-1.174-.002-2.224-.514-1.05-.498-1.86-1.615-.475-.657-.766-1.434t-.322-1.655q-.03-.88.223-1.84.268-.96.89-1.978.613-1.012 1.635-2.073 1.014-1.055 2.504-2.133 1.078-.78 2.26-1.45 1.167-.673 2.362-1.205 1.187-.526 2.36-.918 1.178-.384 2.268-.618l.48 3.665q-.897.193-1.864.51-.96.312-1.953.748-.986.43-1.97.98-.99.558-1.93 1.238-1.353.98-2.08 1.8-.725.823-1.02 1.506-.294.67-.227 1.188.073.528.337.892.522.72 1.504.714.977-.016 2.305-.977.535-.387 1.178-.965l1.335-1.225q.7-.654 1.44-1.302.736-.656 1.49-1.2 1.417-1.027 2.745-1.495 1.33-.481 2.495-.424 1.166.058 2.15.617.99.567 1.741 1.604 1.01 1.393 1.15 2.934.145 1.548-.507 3.155-.65 1.608-2.046 3.21-1.387 1.597-3.445 3.086-1.36.985-2.78 1.754-1.42.768-2.839 1.314-1.41.54-2.805.882-1.386.337-2.677.48m23.18-13.531-11.64-16.08 3.28-2.374 11.64 16.08Zm7.42-5.37-11.64-16.08 3.256-2.357 13.82-2.004-3.8-5.25 3.257-2.357 11.64 16.08-3.257 2.357-5.336-7.372-13.797 2.037 9.113 12.588Zm14.21-22.682q-1.244-1.717-1.675-3.677-.425-1.951.008-3.944.432-1.98 1.754-3.887 1.317-1.916 3.56-3.54 1.97-1.425 3.893-2.213t3.92-.997l.29 3.555q-.62.03-1.33.21-.704.188-1.439.485-.72.3-1.444.7-.729.392-1.377.86-1.563 1.133-2.505 2.407t-1.286 2.572q-.33 1.3-.07 2.582.255 1.272 1.094 2.43.862 1.19 2.037 1.86 1.174.667 2.56.775 1.381.099 2.914-.393 1.532-.492 3.096-1.624.705-.51 1.33-1.112.63-.615 1.148-1.262.527-.654.947-1.353.426-.69.742-1.363l3.28 1.378q-.71 1.798-2.09 3.525t-3.323 3.134q-2.479 1.794-4.813 2.509t-4.405.497-3.81-1.29q-1.735-1.066-3.007-2.824m26.186-6.561-11.639-16.08 13.69-9.91 2.07 2.86-10.434 7.553 2.328 3.215 9.235-6.684 1.94 2.68-9.234 6.686 3.237 4.47 10.644-7.704 2.064 2.85Zm-47.033 66.34-2.03-2.801 2.848-7.987q.647-1.802.988-3.036.347-1.226.447-2.077.092-.844-.037-1.38-.12-.543-.42-.956-.34-.47-.833-.742-.488-.264-1.137-.275-.636-.01-1.416.296-.777.29-1.684.947-1.32.956-2.355 2.273t-1.809 3.112l-3.287-1.386q.84-2.028 2.217-3.827 1.385-1.805 3.33-3.212 1.692-1.226 3.241-1.73 1.54-.498 2.87-.385 1.321.104 2.387.74 1.08.639 1.83 1.676.58.802.84 1.724.261.923.157 2.195-.1 1.259-.592 2.984-.483 1.72-1.382 4.112l-1.23 3.247 8.806-6.374 2.07 2.86Zm10.8-20.125q-1.407-1.944-1.93-3.91-.537-1.97-.234-3.82.306-1.862 1.435-3.544 1.128-1.68 3.048-3.07 1.912-1.384 3.861-1.931 1.958-.553 3.815-.256 1.851.29 3.563 1.409 1.697 1.117 3.104 3.06t1.94 3.906q.527 1.975.224 3.824t-1.44 3.537q-1.129 1.68-3.04 3.064-1.92 1.39-3.87 1.937t-3.809.264q-1.85-.29-3.554-1.415-1.706-1.11-3.113-3.055m3.258-2.37q.95 1.31 2.032 2.072 1.083.746 2.24.946 1.155.213 2.344-.104 1.198-.324 2.372-1.174 1.167-.845 1.848-1.881.674-1.031.84-2.2.163-1.156-.207-2.418-.385-1.265-1.335-2.577-.944-1.305-2.02-2.057-1.083-.746-2.237-.96-1.163-.208-2.353.11-1.197.324-2.364 1.168-1.174.85-1.856 1.887-.674 1.03-.83 2.195-.167 1.169.204 2.43.378 1.258 1.322 2.562m22.84-4.212-2.03-2.803 2.856-7.992q.64-1.796.98-3.03.354-1.233.447-2.077.092-.845-.029-1.387-.129-.536-.428-.95-.34-.47-.833-.741-.488-.265-1.13-.282-.644-.002-1.423.302-.777.29-1.684.948-1.313.95-2.355 2.273-1.035 1.316-1.8 3.105l-3.296-1.38q.84-2.028 2.225-3.832 1.377-1.8 3.32-3.207 1.702-1.231 3.243-1.73t2.87-.384q1.321.104 2.394.734 1.072.644 1.822 1.68.58.803.841 1.726.26.922.165 2.189-.11 1.264-.592 2.984-.492 1.726-1.39 4.117l-1.22 3.242 8.796-6.368 2.07 2.86Zm14.786-15.95-2.054-2.871 2.321-16.593 3.257-2.357 7.083 9.785 3.467-2.51 2.07 2.86-3.467 2.51 2.486 3.434-3.256 2.357-2.486-3.434Zm1.86-5.703 5.491-3.976-4.1-5.662Z"/></g><path fill="transparent" stroke="transparent" stroke-width="1.786" d="M250 545.536h1000v408.928H250z"/></g></svg>